<svg width="1979" height="2106" viewBox="270 370 1500 1250" fill="none" xmlns="http://www.w3.org/2000/svg">
<g clip-path="url(#clip0_2001_55)">
<path d="M524.069 1315.77C694.01 1567.01 1035.44 1632.91 1286.68 1462.97C1537.92 1293.03 1603.82 951.601 1433.88 700.364C1263.94 449.127 922.507 383.223 671.27 553.163C420.033 723.104 354.129 1064.54 524.069 1315.77Z" fill="url(#paint0_linear_2001_55)"/>
<path opacity="0.31" d="M803.553 957.5C672.811 1057.89 628.531 1210.32 756.136 1396.75C875.503 1571.14 1135.74 1528.5 1195.83 1459.28L1195.85 1459.27C1197.31 1457.59 1198.65 1455.88 1199.88 1454.18C1202.76 1450.12 1205.35 1446.14 1207.67 1442.23C1246.63 1376.48 1208.56 1329.99 1186.84 1299C1163.82 1266.17 1152.51 1198.89 1176.55 1138.98C1200.58 1079.05 1249.66 1054.65 1249.66 1054.65C1249.66 1054.65 1249.66 1054.65 1249.64 1054.66C1234.27 1100.65 1231.58 1155.03 1322.08 1249.8C1388.12 1318.95 1384.76 1374 1378.11 1398.73C1218.38 1530.89 867.736 1755.47 619.632 1435.81C288.892 1009.7 585.84 671.048 882.42 607.524C1119.35 556.776 1314.71 558.52 1445.41 691.974C1470.97 728.277 1488.15 762.698 1495.95 790.842C1495.97 790.939 1496 791.038 1496.01 791.135C1499.06 802.137 1500.66 812.197 1500.74 821.005C1500.78 824.153 1500.62 827.139 1500.27 829.959C1499.06 835.653 1497.18 841.196 1494.61 846.511C1496.44 843.811 1497.9 840.939 1498.95 837.886C1473.4 961.415 1229.18 943.436 1135.77 933.074C1053.64 923.977 1017.44 952.558 1001.32 987.796C985.224 1023.04 971.863 1053.9 917.507 1104.3C894.499 1125.63 865.284 1144.5 838.119 1157.49C838.085 1157.51 838.061 1157.53 838.016 1157.54C829.178 1161.76 820.548 1165.36 812.427 1168.22C812.294 1168.27 812.156 1168.32 812.018 1168.36C786.347 1177.33 765.77 1178.88 759.27 1169.27C744.361 1147.23 767.958 1140.12 793.942 1061.05C801.838 1037.05 805.228 1016.5 806.381 1000.2C806.381 1000.2 806.369 1000.18 806.38 1000.16C808.315 972.715 803.909 957.223 803.909 957.223" fill="black"/>
<path d="M522.549 1286.86C477.031 1175.7 523.059 1067.26 555.39 1016.32C587.728 965.374 554.443 939.03 540.942 980.324C527.432 1021.62 474.83 1022.27 512.433 956.472C548.706 893.013 674.349 808.896 772.322 849.627C745.378 840.35 712.164 852.145 679.637 877.237C625.501 918.999 500.27 1088.06 635.689 1308.07C671.545 1379.79 568.047 1398.01 522.549 1286.86Z" fill="url(#paint1_linear_2001_55)"/>
<path d="M723.691 1578.42C703.839 1569.49 683.958 1559.48 664.374 1548.34C663.062 1547.6 661.74 1546.84 660.431 1546.09C659.114 1545.33 657.8 1544.57 656.488 1543.79C654.625 1542.7 652.763 1541.6 650.911 1540.49C650.228 1540.07 649.549 1539.67 648.867 1539.25C631.077 1528.52 613.491 1516.8 596.324 1504.14C535.897 1459.62 480.329 1403.51 436.761 1337.39C506.073 1439.79 605.57 1493.18 643.408 1508.25C720.856 1539.09 773.875 1547.33 807.441 1546.89C841.006 1546.45 841.063 1586.3 805.12 1580.47C806.041 1580.89 865.471 1607.33 907.482 1608.17C966.106 1609.34 1021.92 1582.06 1026.88 1617.68C1031.72 1652.49 878.675 1648.2 723.689 1578.44L723.691 1578.42Z" fill="url(#paint2_linear_2001_55)"/>
<path d="M915.584 1568.58C915.557 1568.35 915.522 1568.12 915.473 1567.88C915.433 1567.65 915.39 1567.42 915.333 1567.19C915.287 1567.02 915.247 1566.85 915.194 1566.68C915.159 1566.56 915.134 1566.44 915.08 1566.3C915.032 1566.14 914.984 1565.98 914.913 1565.82C914.834 1565.64 914.769 1565.45 914.685 1565.25C914.665 1565.17 914.628 1565.1 914.583 1565.03C914.524 1564.89 914.457 1564.76 914.378 1564.6C914.254 1564.35 914.122 1564.1 913.968 1563.86C913.85 1563.65 913.718 1563.43 913.578 1563.23C913.097 1562.51 912.551 1561.87 911.951 1561.28C911.795 1561.12 911.622 1560.98 911.449 1560.83C911.234 1560.63 911.011 1560.45 910.782 1560.29L910.543 1560.11C910.373 1559.99 910.2 1559.87 910.033 1559.77C909.893 1559.67 909.746 1559.58 909.582 1559.49C909.414 1559.39 909.239 1559.29 909.061 1559.21C908.707 1559.02 908.351 1558.85 907.982 1558.72C907.801 1558.65 907.62 1558.58 907.431 1558.51C907.242 1558.45 907.053 1558.38 906.847 1558.33C906.683 1558.28 906.539 1558.24 906.38 1558.21C906.239 1558.16 906.1 1558.13 905.953 1558.11L916.636 1514.7C1042.72 1535.88 1160.85 1484.6 1213.31 1418.25L1213.33 1418.24C1214.79 1416.56 1216.14 1414.85 1217.36 1413.15C1220.24 1409.09 1222.84 1405.11 1225.15 1401.2C1264.12 1335.45 1226.04 1288.96 1204.32 1257.97C1181.3 1225.14 1170 1157.86 1194.04 1097.95C1218.07 1038.02 1267.14 1013.62 1267.14 1013.62C1267.14 1013.62 1267.14 1013.62 1267.12 1013.63C1265.86 1014.82 1185.48 1091.79 1258.95 1200.42C1324.24 1296.93 1354.63 1379.55 1270.89 1459.8C1266.72 1463.27 1262.52 1467.02 1258.32 1471.09C1258.32 1471.09 1258.3 1471.1 1258.29 1471.1C1250.03 1478.09 1240.87 1485.06 1230.77 1492.03C1140.85 1553.97 1029.4 1583.64 915.564 1568.61L915.584 1568.58Z" fill="url(#paint3_linear_2001_55)"/>
<path d="M1516.91 1526.88C1439.08 1443.22 1357.8 1387.68 1270.9 1459.78C1354.64 1379.53 1324.24 1296.9 1258.96 1200.39C1185.48 1091.77 1265.87 1014.79 1267.13 1013.6C1251.76 1059.59 1249.07 1113.98 1339.57 1208.74C1430.07 1303.5 1390.23 1371.83 1390.23 1371.83C1416.24 1366.16 1460.18 1356.19 1527.77 1456.12C1595.36 1556.04 1710.03 1594.09 1710.03 1594.09C1676.93 1617.65 1598.5 1614.56 1516.91 1526.88Z" fill="url(#paint4_linear_2001_55)"/>
<path d="M935.015 1063.25C912.007 1084.59 882.793 1103.45 855.627 1116.44C918.95 1084.62 952.245 1023.28 1005.15 916.828C1050.79 824.988 1123.19 825.575 1214.04 841.398C1214.07 841.403 1214.1 841.409 1214.13 841.414C1221.6 842.901 1229.22 844.305 1236.99 845.604C1258.17 849.628 1280.24 854.103 1303.13 858.126C1421.61 879.014 1490.67 849.813 1512.08 805.486C1512.08 805.486 1512.1 805.475 1512.11 805.469C1513.94 802.769 1515.4 799.897 1516.45 796.845C1490.9 920.374 1246.68 902.394 1153.27 892.033C1071.14 882.935 1034.94 911.516 1018.82 946.754C1002.72 981.995 989.363 1012.86 935.007 1063.26L935.015 1063.25Z" fill="url(#paint5_linear_2001_55)"/>
<path d="M916.633 1514.68C833.685 1500.76 747.295 1455.47 673.903 1362.5C659.337 1344.05 646.654 1325.89 635.695 1308.08C500.276 1088.07 625.501 918.999 679.643 877.245C712.178 852.148 745.384 840.359 772.328 849.636C772.328 849.636 772.344 849.624 772.355 849.641C775.916 851.12 779.43 852.764 782.917 854.582C782.917 854.582 782.917 854.582 782.928 854.598C799.161 864.372 812.377 883.357 820.741 913.676C820.844 914.597 820.95 915.539 821.051 916.473C690.308 1016.86 646.029 1169.29 773.634 1355.73C893.001 1530.11 1153.24 1487.48 1213.33 1418.25C1160.86 1484.6 1042.73 1535.88 916.65 1514.7L916.633 1514.68Z" fill="url(#paint6_linear_2001_55)"/>
<path d="M855.621 1116.44C855.621 1116.44 855.563 1116.48 855.519 1116.48C846.68 1120.71 838.051 1124.3 829.93 1127.16C829.797 1127.22 829.659 1127.26 829.52 1127.31C803.85 1136.28 783.272 1137.82 776.773 1128.22C761.864 1106.17 785.461 1099.06 811.445 1020C819.341 995.994 822.731 975.447 823.883 959.142C823.883 959.142 823.872 959.125 823.883 959.106C825.818 931.659 821.412 916.168 821.412 916.168C821.201 915.321 820.96 914.482 820.732 913.646C802.633 754.454 717.474 736.735 670.225 751.056C747.213 725.709 827.194 727.832 894.982 746.642C1041.2 787.188 1117.35 822.122 1214.03 841.395C1123.17 825.572 1050.77 824.985 1005.13 916.825C952.223 1023.28 918.936 1084.62 855.613 1116.44L855.621 1116.44Z" fill="url(#paint7_linear_2001_55)"/>
<path d="M488.973 577.764C413.822 508.122 318.292 509.732 322.073 483.427C324.715 465.076 364.47 443.835 418.107 430.963C359.828 450.681 409.121 523.447 511.558 495.905C613.995 468.364 624.697 534.25 544.429 528.723C473.14 523.799 465.234 550.468 488.979 577.772L488.973 577.764Z" fill="url(#paint8_linear_2001_55)"/>
<path d="M486.093 703.869C487.894 702.892 489.741 701.909 491.614 700.931C489.735 701.9 487.892 702.87 486.093 703.869ZM484.2 704.908C459.004 718.884 440.516 734.263 427.674 749.759C440.528 734.28 459.062 718.881 484.2 704.908ZM1513.5 750.077C1513.49 749.98 1513.46 749.881 1513.44 749.784C1473.4 605.356 1186.32 295.151 785.605 417.006C874.72 392.438 890.605 465.576 811.665 491.676C767.433 506.298 721.591 505.048 666.35 464.966C666.35 464.966 666.346 464.961 666.339 464.95C665.391 464.227 603.824 417.703 510.449 419.232C478.099 419.757 446.202 424.201 418.11 430.95C359.831 450.667 409.123 523.433 511.56 495.892C613.997 468.35 624.699 534.236 544.431 528.709C473.142 523.785 465.236 550.454 488.981 577.758C488.981 577.758 488.981 577.758 488.993 577.775C492.504 581.038 495.991 584.462 499.404 588.044C500.591 589.282 501.773 590.547 502.944 591.832C541.535 634.712 530.809 677.933 493.853 699.779L494.003 699.714C494.625 699.402 495.255 699.084 495.885 698.767C497.137 698.137 498.417 697.513 499.703 696.896C500.95 696.295 502.202 695.701 503.477 695.104C504.837 694.474 506.22 693.841 507.608 693.216C508.924 692.627 510.24 692.039 511.584 691.455C512.967 690.858 514.358 690.255 515.774 689.672C516.48 689.376 517.193 689.074 517.904 688.786C520.078 687.895 522.28 687.01 524.515 686.138C527.442 685.003 530.41 683.876 533.454 682.771C534.242 682.492 535.017 682.209 535.814 681.923C537.748 681.231 539.693 680.555 541.68 679.887C543.661 679.211 545.654 678.551 547.683 677.891C553.375 676.045 559.257 674.263 565.32 672.553C649.798 648.732 734.477 652.337 815.035 669.197C782.795 661.354 770.253 622.572 801.247 608.513C848.777 586.951 932.926 666.02 986.474 698.458C1040.02 730.895 1034.24 677.288 995.175 667.521C956.102 657.768 924.879 624.62 932.823 602.079C940.245 581.014 983.631 566.782 1030.71 626.786C1077.8 686.789 1102.23 755.254 1212.35 783.919C1216.91 785.103 1221.44 786.271 1225.91 787.4C1224.56 786.996 1223.2 786.584 1221.85 786.157C1168.38 769.476 1129.28 742.283 1134.54 725.418C1139.8 708.544 1187.42 708.402 1240.9 725.077C1294.38 741.759 1333.47 768.957 1328.21 785.823C1324.09 799.036 1293.97 801.992 1255.4 794.635C1436.74 837.531 1533.42 829.725 1513.54 750.077L1513.5 750.077ZM909.632 563.028C904.164 554.943 906.278 543.951 914.362 538.483C922.447 533.015 933.436 535.143 938.904 543.227C944.373 551.312 942.252 562.295 934.168 567.764C926.084 573.232 915.1 571.112 909.632 563.028Z" fill="url(#paint9_linear_2001_55)"/>
<path d="M1710.03 1594.1C1676.94 1617.66 1598.51 1614.57 1516.92 1526.89C1439.08 1443.22 1357.81 1387.68 1270.9 1459.78C1266.97 1463.55 1262.78 1467.32 1258.33 1471.07C1258.33 1471.07 1258.31 1471.08 1258.3 1471.09C1250.04 1478.07 1240.88 1485.04 1230.78 1492.01C1140.86 1553.96 1029.41 1583.62 915.575 1568.59C915.616 1568.86 915.643 1569.13 915.659 1569.42C915.675 1569.45 915.664 1569.47 915.659 1569.5C915.681 1569.53 915.668 1569.56 915.662 1569.59C915.688 1569.75 915.692 1569.92 915.674 1570.09C915.673 1570.28 915.671 1570.48 915.661 1570.68C915.652 1570.88 915.645 1571.06 915.618 1571.27C915.603 1571.47 915.588 1571.66 915.542 1571.86C915.537 1571.99 915.513 1572.12 915.481 1572.25C915.462 1572.42 915.433 1572.57 915.387 1572.74C915.333 1573.01 915.274 1573.28 915.187 1573.55C915.114 1573.81 915.019 1574.08 914.926 1574.34C914.839 1574.6 914.724 1574.86 914.618 1575.11C914.563 1575.25 914.511 1575.37 914.437 1575.49C914.377 1575.62 914.311 1575.73 914.249 1575.87C914.191 1575.98 914.134 1576.09 914.07 1576.2C914.005 1576.31 913.947 1576.43 913.878 1576.52C913.763 1576.71 913.656 1576.89 913.53 1577.06C913.417 1577.23 913.299 1577.4 913.184 1577.55C913.046 1577.74 912.898 1577.91 912.755 1578.09C912.642 1578.23 912.529 1578.36 912.405 1578.48C912.033 1578.88 911.636 1579.26 911.209 1579.61C911.079 1579.72 910.944 1579.82 910.809 1579.92C910.627 1580.05 910.464 1580.18 910.282 1580.31C904.657 1584.11 897.02 1582.64 893.216 1577.01C889.412 1571.39 890.88 1563.74 896.504 1559.94C896.695 1559.81 896.894 1559.67 897.101 1559.57C897.209 1559.5 897.333 1559.41 897.457 1559.37C897.557 1559.3 897.651 1559.26 897.753 1559.21C897.955 1559.1 898.171 1558.99 898.381 1558.91C898.414 1558.89 898.43 1558.88 898.475 1558.87C898.679 1558.78 898.898 1558.69 899.108 1558.61C899.224 1558.57 899.332 1558.53 899.449 1558.49C899.742 1558.39 900.055 1558.3 900.365 1558.22C900.423 1558.22 900.487 1558.19 900.547 1558.17C900.761 1558.11 900.977 1558.07 901.193 1558.03C901.328 1558 901.47 1557.98 901.617 1557.96C901.775 1557.93 901.944 1557.91 902.118 1557.9C902.348 1557.87 902.567 1557.85 902.792 1557.85C902.989 1557.83 903.191 1557.83 903.385 1557.83C903.579 1557.83 903.768 1557.82 903.973 1557.84C904.168 1557.84 904.359 1557.86 904.57 1557.89C904.767 1557.91 904.959 1557.93 905.153 1557.96C905.281 1557.97 905.414 1557.99 905.544 1558.02C905.678 1558.04 905.803 1558.07 905.933 1558.1L905.975 1558.11L916.658 1514.7C833.71 1500.78 747.32 1455.49 673.928 1362.52C659.362 1344.07 646.679 1325.91 635.72 1308.1C671.576 1379.81 568.078 1398.04 522.58 1286.89C477.062 1175.72 523.09 1067.29 555.421 1016.35C587.759 965.402 554.474 939.057 540.973 980.352C527.463 1021.65 474.861 1022.29 512.464 956.499C548.737 893.041 674.38 808.923 772.353 849.655C772.353 849.655 772.369 849.644 772.38 849.66C776.019 850.917 779.542 852.555 782.942 854.601C782.942 854.601 782.942 854.601 782.953 854.618C799.186 864.391 812.402 883.376 820.766 913.696C802.666 754.504 717.507 736.784 670.259 751.105C670.206 751.117 670.145 751.134 670.104 751.162C668.651 751.638 667.212 752.116 665.762 752.614C665.584 752.673 665.421 752.735 665.258 752.798C624.966 766.711 585.576 788.224 549.276 818.911C453.037 900.271 377.843 841.633 413.245 771.568C415.084 767.933 417.218 764.269 419.664 760.585C419.972 760.112 420.29 759.655 420.603 759.19C421.243 758.262 421.9 757.323 422.576 756.394C422.991 755.812 423.434 755.235 423.865 754.641C438.196 735.615 460.886 716.561 493.843 699.834L493.876 699.812C530.828 677.98 541.563 634.754 502.958 591.87C501.549 593.125 333.695 743.667 342.58 1032.86C342.835 1041.17 343.236 1049.57 343.784 1058.11C343.782 1058.16 343.807 1058.22 343.805 1058.27C344.43 1067.9 345.252 1077.67 346.29 1087.59C356.033 1181.31 389.245 1265.23 436.708 1337.29L436.786 1337.41C506.098 1439.81 605.595 1493.2 643.433 1508.27C720.881 1539.11 773.9 1547.35 807.466 1546.91C841.031 1546.46 841.088 1586.31 805.145 1580.49C806.066 1580.91 865.496 1607.35 907.507 1608.19C966.131 1609.36 1021.95 1582.08 1026.9 1617.69C1158.44 1604.25 1221.39 1566.66 1270.43 1539C1332 1504.29 1351.33 1502.86 1410.72 1556.45C1470.1 1610.05 1591.59 1691.89 1710.06 1594.13L1710.03 1594.1ZM450.789 1059.4C446.659 1053.3 448.262 1044.99 454.359 1040.87C460.455 1036.75 468.767 1038.34 472.896 1044.45C477.025 1050.55 475.417 1058.85 469.312 1062.98C463.208 1067.11 454.912 1065.5 450.789 1059.4Z" fill="url(#paint10_linear_2001_55)"/>
<path d="M1255.38 794.638L1255.33 794.627C1245.75 792.354 1235.93 789.94 1225.88 787.403C1224.54 786.999 1223.18 786.587 1221.83 786.16C1168.35 769.479 1129.25 742.286 1134.52 725.421C1139.78 708.547 1187.39 708.404 1240.88 725.08C1294.36 741.762 1333.45 768.96 1328.18 785.826C1324.07 799.039 1293.95 801.995 1255.38 794.638Z" fill="url(#paint11_linear_2001_55)"/>
<path d="M811.67 491.684C767.439 506.307 721.597 505.056 666.356 464.975C702.778 446.749 738.445 432.173 773.277 420.878C773.338 420.861 773.407 420.838 773.471 420.807C777.465 419.518 781.453 418.257 785.422 417.057C785.483 417.04 785.552 417.018 785.605 417.006C874.721 392.438 890.605 465.576 811.665 491.676L811.67 491.684Z" fill="url(#paint12_linear_2001_55)"/>
<path d="M687.209 1669.79C598.625 1584.45 596.33 1505.35 596.316 1504.15C613.489 1516.81 631.061 1528.53 648.859 1539.26C649.541 1539.68 650.22 1540.07 650.903 1540.49C652.755 1541.61 654.623 1542.71 656.48 1543.8C657.786 1544.57 659.101 1545.33 660.423 1546.09C661.723 1546.85 663.046 1547.61 664.366 1548.35C683.95 1559.49 703.831 1569.5 723.683 1578.43C704.646 1604.15 703.748 1636.04 706.937 1659.89C708.409 1670.85 695.163 1677.46 687.209 1669.79Z" fill="url(#paint13_linear_2001_55)"/>
<path d="M934.168 567.764C926.084 573.232 915.1 571.112 909.632 563.028C904.164 554.943 906.278 543.951 914.362 538.483C922.447 533.015 933.436 535.143 938.904 543.227C944.373 551.312 942.252 562.295 934.168 567.764Z" fill="url(#paint14_linear_2001_55)"/>
<path d="M330.9 738.375C341.096 753.448 361.58 757.402 376.654 747.206C391.727 737.011 395.681 716.526 385.485 701.453C375.289 686.379 354.805 682.425 339.731 692.621C324.658 702.817 320.704 723.302 330.9 738.375Z" fill="url(#paint15_linear_2001_55)"/>
<path d="M469.312 1062.98C463.216 1067.1 454.912 1065.5 450.789 1059.4C446.665 1053.31 448.262 1044.99 454.359 1040.87C460.455 1036.75 468.767 1038.34 472.896 1044.45C477.025 1050.55 475.417 1058.85 469.312 1062.98Z" fill="url(#paint16_linear_2001_55)"/>
<path d="M910.276 1580.3C904.652 1584.1 897.015 1582.63 893.21 1577C889.406 1571.38 890.875 1563.73 896.499 1559.93C896.689 1559.8 896.888 1559.67 897.095 1559.56C897.203 1559.49 897.327 1559.4 897.452 1559.36C897.551 1559.29 897.645 1559.25 897.748 1559.21C897.955 1559.1 898.165 1558.98 898.375 1558.9C898.408 1558.88 898.425 1558.87 898.469 1558.86C898.674 1558.77 898.892 1558.68 899.103 1558.6C899.219 1558.56 899.327 1558.52 899.443 1558.48C899.736 1558.38 900.049 1558.29 900.359 1558.21C900.417 1558.21 900.481 1558.18 900.542 1558.16C900.755 1558.1 900.971 1558.06 901.187 1558.03C901.323 1557.99 901.47 1557.98 901.611 1557.96C901.769 1557.92 901.938 1557.9 902.113 1557.89C902.34 1557.87 902.554 1557.85 902.786 1557.84C902.983 1557.82 903.186 1557.82 903.38 1557.82C903.574 1557.82 903.768 1557.83 903.968 1557.83C904.159 1557.85 904.359 1557.86 904.564 1557.88C904.762 1557.9 904.953 1557.92 905.147 1557.95C905.275 1557.96 905.408 1557.98 905.539 1558.02C905.672 1558.03 905.797 1558.06 905.928 1558.09L905.969 1558.1C906.117 1558.12 906.261 1558.16 906.397 1558.2C906.564 1558.23 906.708 1558.26 906.864 1558.31C907.061 1558.37 907.259 1558.43 907.448 1558.5C907.637 1558.56 907.817 1558.64 907.998 1558.71C908.36 1558.85 908.724 1559.01 909.078 1559.2C909.256 1559.28 909.431 1559.38 909.598 1559.48C909.748 1559.56 909.896 1559.66 910.049 1559.76C910.222 1559.87 910.395 1559.98 910.559 1560.1L910.799 1560.28C911.033 1560.44 911.256 1560.63 911.465 1560.82C911.638 1560.96 911.811 1561.11 911.968 1561.27C912.568 1561.86 913.113 1562.5 913.595 1563.21C913.735 1563.42 913.875 1563.63 913.985 1563.84C914.147 1564.08 914.271 1564.34 914.395 1564.59C914.468 1564.74 914.535 1564.87 914.6 1565.02C914.645 1565.09 914.673 1565.17 914.701 1565.24C914.786 1565.44 914.859 1565.62 914.93 1565.81C914.992 1565.98 915.048 1566.13 915.097 1566.29C915.145 1566.42 915.184 1566.55 915.21 1566.67C915.264 1566.84 915.304 1567.01 915.35 1567.18C915.407 1567.41 915.455 1567.64 915.49 1567.87C915.531 1568.11 915.565 1568.34 915.6 1568.57C915.633 1568.85 915.659 1569.12 915.683 1569.41C915.7 1569.43 915.689 1569.45 915.684 1569.48C915.706 1569.51 915.693 1569.55 915.687 1569.57C915.7 1569.74 915.709 1569.91 915.699 1570.07C915.698 1570.27 915.696 1570.46 915.686 1570.66C915.677 1570.86 915.67 1571.05 915.643 1571.26C915.628 1571.45 915.604 1571.65 915.567 1571.84C915.557 1571.97 915.538 1572.1 915.506 1572.23C915.487 1572.4 915.458 1572.55 915.412 1572.72C915.358 1573 915.299 1573.27 915.212 1573.53C915.139 1573.8 915.044 1574.07 914.951 1574.32C914.858 1574.58 914.744 1574.84 914.643 1575.1C914.588 1575.23 914.536 1575.35 914.462 1575.47C914.402 1575.6 914.336 1575.72 914.273 1575.85C914.216 1575.97 914.158 1576.08 914.095 1576.18C914.03 1576.3 913.972 1576.41 913.903 1576.5C913.788 1576.69 913.676 1576.86 913.555 1577.04C913.442 1577.21 913.324 1577.38 913.209 1577.53C913.071 1577.72 912.923 1577.89 912.78 1578.07C912.667 1578.21 912.554 1578.35 912.43 1578.47C912.058 1578.86 911.661 1579.24 911.234 1579.59C911.104 1579.7 910.969 1579.8 910.834 1579.91C910.652 1580.03 910.489 1580.17 910.307 1580.29L910.276 1580.3Z" fill="url(#paint17_linear_2001_55)"/>
<path d="M1512.08 805.486C1512.08 805.486 1512.1 805.475 1512.11 805.469C1514.68 800.146 1516.56 794.611 1517.77 788.918C1518.12 786.097 1518.28 783.103 1518.24 779.964C1518.16 771.156 1516.56 761.096 1513.51 750.094C1533.4 829.75 1436.73 837.542 1255.38 794.652L1255.32 794.641C1245.93 792.849 1236.02 790.433 1225.88 787.417C1221.41 786.288 1216.89 785.12 1212.32 783.936C1102.21 755.27 1077.76 686.811 1030.69 626.802C983.606 566.799 940.226 581.039 932.799 602.096C924.854 624.637 956.085 657.779 995.15 667.538C1034.22 677.291 1039.99 730.904 986.449 698.474C932.901 666.037 848.752 586.968 801.222 608.53C770.22 622.595 782.756 661.368 815.01 669.214C815.987 669.41 816.954 669.625 817.909 669.824C816.921 669.648 815.951 669.446 815.01 669.214C734.452 652.354 649.781 648.743 565.295 672.57C559.232 674.28 553.351 676.062 547.658 677.908C545.637 678.563 543.631 679.219 541.655 679.904C539.674 680.58 537.729 681.256 535.789 681.94C534.992 682.226 534.217 682.508 533.429 682.788C530.385 683.893 527.417 685.02 524.49 686.154C522.255 687.026 520.053 687.912 517.879 688.803C517.174 689.099 516.46 689.401 515.749 689.688C514.331 690.286 512.942 690.875 511.559 691.472C510.224 692.05 508.899 692.644 507.583 693.232C506.186 693.863 504.812 694.491 503.452 695.121C502.183 695.726 500.925 696.311 499.678 696.913C498.378 697.527 497.112 698.154 495.86 698.783C495.177 699.112 494.492 699.455 493.828 699.796L493.795 699.818C493.054 700.186 492.319 700.563 491.59 700.948C489.71 701.917 487.867 702.886 486.068 703.886C485.432 704.231 484.81 704.58 484.175 704.925C458.979 718.901 440.492 734.28 427.649 749.776C426.309 751.383 425.038 753.003 423.812 754.617C423.375 755.202 422.938 755.787 422.523 756.37C421.847 757.298 421.19 758.237 420.55 759.165C420.237 759.63 419.919 760.087 419.611 760.561C417.441 764.081 415.308 767.746 413.192 771.543C377.792 841.594 452.992 900.241 549.223 818.886C585.523 788.2 624.921 766.681 665.205 752.773C665.368 752.711 665.532 752.649 665.709 752.589C667.111 752.075 668.553 751.583 670.051 751.137C670.092 751.109 670.159 751.101 670.206 751.081C747.193 725.735 827.175 727.857 894.962 746.667C1041.19 787.213 1117.33 822.148 1214.01 841.421C1214.04 841.426 1214.06 841.431 1214.09 841.437C1221.59 842.74 1229.2 844.145 1236.96 845.626C1258.14 849.65 1280.2 854.125 1303.1 858.148C1421.57 879.036 1490.64 849.835 1512.05 805.509L1512.08 805.486Z" fill="url(#paint18_linear_2001_55)"/>
</g>
<defs>
<linearGradient id="paint0_linear_2001_55" x1="405.217" y1="1109.85" x2="1409.14" y2="931.751" gradientUnits="userSpaceOnUse">
<stop stop-color="#24088D"/>
<stop offset="1" stop-color="#803FFB"/>
</linearGradient>
<linearGradient id="paint1_linear_2001_55" x1="879.255" y1="942.248" x2="469.949" y2="1213.54" gradientUnits="userSpaceOnUse">
<stop stop-color="#24088D"/>
<stop offset="1" stop-color="#803FFB"/>
</linearGradient>
<linearGradient id="paint2_linear_2001_55" x1="765.983" y1="1526.06" x2="927.528" y2="1635.27" gradientUnits="userSpaceOnUse">
<stop stop-color="#24088D"/>
<stop offset="1" stop-color="#803FFB"/>
</linearGradient>
<linearGradient id="paint3_linear_2001_55" x1="1283.72" y1="1221.27" x2="651.101" y2="1783.88" gradientUnits="userSpaceOnUse">
<stop stop-color="#24088D"/>
<stop offset="1" stop-color="#803FFB"/>
</linearGradient>
<linearGradient id="paint4_linear_2001_55" x1="1706.81" y1="1192.82" x2="1204.05" y2="1449.39" gradientUnits="userSpaceOnUse">
<stop stop-color="#24088D"/>
<stop offset="1" stop-color="#803FFB"/>
</linearGradient>
<linearGradient id="paint5_linear_2001_55" x1="893.065" y1="930.359" x2="1310.84" y2="967.832" gradientUnits="userSpaceOnUse">
<stop stop-color="#4C6778"/>
<stop offset="1" stop-color="#DBEBF6"/>
</linearGradient>
<linearGradient id="paint6_linear_2001_55" x1="1110.13" y1="837.595" x2="856.774" y2="1290.07" gradientUnits="userSpaceOnUse">
<stop stop-color="#4C6778"/>
<stop offset="1" stop-color="#DBEBF6"/>
</linearGradient>
<linearGradient id="paint7_linear_2001_55" x1="740.133" y1="939.721" x2="1082.89" y2="884.138" gradientUnits="userSpaceOnUse">
<stop stop-color="#24088D"/>
<stop offset="1" stop-color="#803FFB"/>
</linearGradient>
<linearGradient id="paint8_linear_2001_55" x1="372.742" y1="529.064" x2="631.792" y2="448.466" gradientUnits="userSpaceOnUse">
<stop stop-color="#24088D"/>
<stop offset="1" stop-color="#803FFB"/>
</linearGradient>
<linearGradient id="paint9_linear_2001_55" x1="883.574" y1="739.701" x2="1155.78" y2="269.839" gradientUnits="userSpaceOnUse">
<stop stop-color="#24088D"/>
<stop offset="1" stop-color="#803FFB"/>
</linearGradient>
<linearGradient id="paint10_linear_2001_55" x1="398.3" y1="1389.35" x2="964.51" y2="1156.65" gradientUnits="userSpaceOnUse">
<stop stop-color="#24088D"/>
<stop offset="1" stop-color="#803FFB"/>
</linearGradient>
<linearGradient id="paint11_linear_2001_55" x1="1062.32" y1="665.309" x2="1230.13" y2="754.974" gradientUnits="userSpaceOnUse">
<stop stop-color="#4C6778"/>
<stop offset="1" stop-color="#DBEBF6"/>
</linearGradient>
<linearGradient id="paint12_linear_2001_55" x1="695.021" y1="509.173" x2="1026.48" y2="294.242" gradientUnits="userSpaceOnUse">
<stop stop-color="#24088D"/>
<stop offset="1" stop-color="#803FFB"/>
</linearGradient>
<linearGradient id="paint13_linear_2001_55" x1="612.128" y1="1493.45" x2="722.744" y2="1656.98" gradientUnits="userSpaceOnUse">
<stop stop-color="#24088D"/>
<stop offset="1" stop-color="#803FFB"/>
</linearGradient>
<linearGradient id="paint14_linear_2001_55" x1="900.903" y1="564.972" x2="939.244" y2="545.533" gradientUnits="userSpaceOnUse">
<stop stop-color="#24088D"/>
<stop offset="1" stop-color="#803FFB"/>
</linearGradient>
<linearGradient id="paint15_linear_2001_55" x1="328.869" y1="737.853" x2="376.547" y2="708.693" gradientUnits="userSpaceOnUse">
<stop stop-color="#24088D"/>
<stop offset="1" stop-color="#803FFB"/>
</linearGradient>
<linearGradient id="paint16_linear_2001_55" x1="451.65" y1="1058.82" x2="473.078" y2="1044.33" gradientUnits="userSpaceOnUse">
<stop stop-color="#24088D"/>
<stop offset="1" stop-color="#803FFB"/>
</linearGradient>
<linearGradient id="paint17_linear_2001_55" x1="894.1" y1="1577.73" x2="911.199" y2="1563.69" gradientUnits="userSpaceOnUse">
<stop stop-color="#24088D"/>
<stop offset="1" stop-color="#803FFB"/>
</linearGradient>
<linearGradient id="paint18_linear_2001_55" x1="630.425" y1="423.349" x2="1201.83" y2="1058.26" gradientUnits="userSpaceOnUse">
<stop stop-color="#24088D"/>
<stop offset="1" stop-color="#803FFB"/>
</linearGradient>
<clipPath id="clip0_2001_55">
<rect width="1706.58" height="1234.71" fill="white" transform="translate(1022.72) rotate(55.925)"/>
</clipPath>
</defs>
</svg>
