<?xml version="1.0" encoding="UTF-8"?>
<svg id="Layer_2" data-name="Layer 2" xmlns="http://www.w3.org/2000/svg" xmlns:xlink="http://www.w3.org/1999/xlink" viewBox="0 0 1706.58 1234.71">
  <defs>
    <style>
      .cls-1 {
        fill: url(#linear-gradient-8);
      }

      .cls-2 {
        fill: url(#linear-gradient-7);
      }

      .cls-3 {
        fill: url(#linear-gradient-5);
      }

      .cls-4 {
        fill: url(#linear-gradient-6);
      }

      .cls-5 {
        fill: url(#linear-gradient-9);
      }

      .cls-6 {
        fill: url(#linear-gradient-4);
      }

      .cls-7 {
        fill: url(#linear-gradient-3);
      }

      .cls-8 {
        fill: url(#linear-gradient-2);
      }

      .cls-9 {
        fill: url(#linear-gradient);
      }

      .cls-10 {
        fill: url(#linear-gradient-10);
      }

      .cls-11 {
        fill: url(#linear-gradient-11);
      }

      .cls-12 {
        fill: url(#linear-gradient-12);
      }

      .cls-13 {
        fill: url(#linear-gradient-13);
      }

      .cls-14 {
        fill: url(#linear-gradient-19);
      }

      .cls-15 {
        fill: url(#linear-gradient-14);
      }

      .cls-16 {
        fill: url(#linear-gradient-15);
      }

      .cls-17 {
        fill: url(#linear-gradient-16);
      }

      .cls-18 {
        fill: url(#linear-gradient-17);
      }

      .cls-19 {
        fill: url(#linear-gradient-18);
      }

      .cls-20 {
        opacity: .31;
      }
    </style>
    <linearGradient id="linear-gradient" x1="573.32" y1="1133.3" x2="988.28" y2="201.96" gradientUnits="userSpaceOnUse">
      <stop offset="0" stop-color="#24088d"/>
      <stop offset="1" stop-color="#803ffb"/>
    </linearGradient>
    <linearGradient id="linear-gradient-2" x1="700.09" y1="646.75" x2="695.48" y2="1137.78" xlink:href="#linear-gradient"/>
    <linearGradient id="linear-gradient-3" x1="1120.2" y1="1067.67" x2="1301.17" y2="995.05" xlink:href="#linear-gradient"/>
    <linearGradient id="linear-gradient-4" x1="1157.82" y1="468.06" x2="1269.39" y2="1307.28" xlink:href="#linear-gradient"/>
    <linearGradient id="linear-gradient-5" x1="1371.3" y1="101.67" x2="1302.14" y2="661.86" xlink:href="#linear-gradient"/>
    <linearGradient id="linear-gradient-6" x1="697.98" y1="628.65" x2="963.09" y2="303.6" gradientUnits="userSpaceOnUse">
      <stop offset="0" stop-color="#4c6778"/>
      <stop offset="1" stop-color="#dbebf6"/>
    </linearGradient>
    <linearGradient id="linear-gradient-7" x1="742.76" y1="396.88" x2="975.6" y2="860.25" xlink:href="#linear-gradient-6"/>
    <linearGradient id="linear-gradient-8" x1="620.05" y1="760.57" x2="766.05" y2="445.52" xlink:href="#linear-gradient"/>
    <linearGradient id="linear-gradient-9" x1="74.06" y1="834.8" x2="152.44" y2="575.07" xlink:href="#linear-gradient"/>
    <linearGradient id="linear-gradient-10" x1="534.74" y1="529.69" x2="298.06" y2="40.97" xlink:href="#linear-gradient"/>
    <linearGradient id="linear-gradient-11" x1="800.96" y1="1295.63" x2="925.45" y2="696.26" xlink:href="#linear-gradient"/>
    <linearGradient id="linear-gradient-12" x1="573.27" y1="339.95" x2="741.56" y2="251.19" xlink:href="#linear-gradient-6"/>
    <linearGradient id="linear-gradient-13" x1="238.15" y1="556.71" x2="245.83" y2="161.74" xlink:href="#linear-gradient"/>
    <linearGradient id="linear-gradient-14" x1="1006.99" y1="1176.84" x2="1204.42" y2="1176.84" xlink:href="#linear-gradient"/>
    <linearGradient id="linear-gradient-15" x1="399.72" y1="417.44" x2="405.1" y2="374.79" xlink:href="#linear-gradient"/>
    <linearGradient id="linear-gradient-16" x1="222.42" y1="988.12" x2="224.98" y2="932.29" xlink:href="#linear-gradient"/>
    <linearGradient id="linear-gradient-17" x1="557.07" y1="1066.25" x2="557.07" y2="1040.38" xlink:href="#linear-gradient"/>
    <linearGradient id="linear-gradient-18" x1="1234.78" y1="990.5" x2="1232.73" y2="968.47" xlink:href="#linear-gradient"/>
    <linearGradient id="linear-gradient-19" x1="130.87" y1="562.13" x2="976.92" y2="444.56" xlink:href="#linear-gradient"/>
  </defs>
  <g id="Layer_1-2" data-name="Layer 1">
    <g>
      <circle class="cls-9" cx="810.48" cy="601.03" r="549.2"/>
      <path class="cls-20" d="M670.31,718c9.9,164.54,111.35,286.62,337.27,285.38,211.32-1.17,321.81-240.61,298.14-329.17v-.02c-.57-2.15-1.23-4.22-1.96-6.19-1.74-4.66-3.59-9.04-5.53-13.15-32.63-69.11-92.47-63.62-130.31-62.99-40.09.67-102.15-27.66-138.31-81.14-36.17-53.48-28.89-107.8-28.89-107.8,0,0,0,0,0,.02,29.48,38.5,73.02,71.2,202.22,49.33,94.28-15.96,138,17.67,154.75,37.03,19.98,206.35,9.54,622.62-394.24,649.03-538.26,35.21-652.39-400.49-538.84-681.74,90.71-224.68,201.61-385.52,385.38-419.01,44.39-.83,82.53,4.22,110.21,13.53.09.04.19.07.28.11,10.82,3.64,20.05,7.95,27.39,12.82,2.63,1.73,5.01,3.54,7.15,5.41,4.04,4.19,7.58,8.85,10.54,13.96-1.21-3.03-2.77-5.85-4.71-8.43,88,90.38-63.72,282.59-124.64,354.16-53.55,62.93-50.16,108.93-30,142.02,20.17,33.08,38.25,61.44,49.54,134.7,4.78,31.01,4.04,65.78-.42,95.56,0,.04,0,.07-.02.11-1.45,9.69-3.31,18.85-5.49,27.18-.03.14-.07.28-.11.42-6.95,26.29-17.2,44.2-28.8,44.2-26.61,0-19.28-23.53-70.21-89.35-15.46-19.99-30.58-34.31-43.44-44.4,0,0-.02,0-.03-.02-21.65-16.98-36.95-22.01-36.95-22.01"/>
      <path class="cls-8" d="M785.68,1135.29c-117.58-24.58-181.61-123.46-205.69-178.78-24.08-55.33-64.55-42.52-37.91-8.2,26.64,34.33-2.3,78.26-35.73,10.25-32.24-65.6-31.52-216.8,57.11-275.13-22.78,17.12-31.62,51.24-29.06,92.24,4.26,68.24,74.13,266.69,332.24,277.79,79.49,10.48,36.6,106.42-80.96,81.83Z"/>
      <path class="cls-7" d="M1139.88,1132.04c-18.52,11.44-37.95,22.3-58.15,32.28-1.35.67-2.72,1.34-4.08,2-1.36.67-2.73,1.33-4.11,1.98-1.95.93-3.9,1.86-5.86,2.77-.73.33-1.44.67-2.17,1-18.86,8.72-38.42,16.72-58.52,23.85h0c-70.73,25.11-148.34,39.7-227.52,38.74,123.65-.04,223.62-52.54,257.3-75.44,68.94-46.87,105.47-86.17,123.91-114.22,18.44-28.05,51.48-5.77,26.52,20.74.86-.53,56.06-34.94,80.29-69.27,33.82-47.9,42.49-109.42,74.77-93.57,31.55,15.49-57.75,139.86-202.37,229.15Z"/>
      <path class="cls-6" d="M1239.24,967.58c-.21-.11-.42-.21-.64-.3-.22-.1-.43-.19-.65-.27-.17-.06-.33-.12-.5-.17-.12-.04-.24-.09-.38-.12-.16-.05-.32-.1-.49-.13-.2-.04-.39-.09-.6-.13-.08-.03-.16-.04-.24-.04-.15-.03-.3-.05-.47-.07-.28-.04-.56-.07-.85-.08-.24-.02-.49-.03-.74-.03-.86,0-1.7.09-2.52.26-.22.04-.44.1-.66.16-.28.07-.56.15-.82.25l-.28.1c-.2.07-.39.15-.57.23-.16.06-.32.13-.48.22-.18.08-.36.17-.53.27-.35.19-.69.39-1.01.62-.16.11-.32.22-.48.34-.16.12-.32.24-.48.38-.13.11-.24.21-.36.32-.12.09-.22.19-.32.3l-29.97-33.17c88.18-92.57,111.89-219.15,86.33-299.78v-.02c-.57-2.15-1.23-4.22-1.96-6.19-1.74-4.66-3.59-9.04-5.53-13.15-32.63-69.11-92.47-63.62-130.31-62.99-40.09.67-102.15-27.66-138.31-81.14-36.17-53.48-28.89-107.8-28.89-107.8,0,0,0,0,0,.02.28,1.71,19,111.42,150.14,111.42,116.52,0,201.98,21.12,221.54,135.44.53,5.4,1.29,10.98,2.3,16.74,0,0,0,.02,0,.03,1.16,10.76,1.8,22.25,1.91,34.52.93,109.19-36.94,218.12-113.17,303.99Z"/>
      <path class="cls-3" d="M1541.61,446.13c-112.91,17.6-204.45,53.8-193.42,166.18-19.55-114.32-105.02-135.44-221.54-135.44-131.14,0-149.86-109.71-150.14-111.42,29.48,38.5,73.02,71.2,202.22,49.33,129.2-21.87,163.47,49.41,163.47,49.41,9.88-24.72,26.24-66.7,146.88-66.7s216.4-73.66,216.4-73.66c.97,40.61-45.53,103.85-163.87,122.3Z"/>
      <path class="cls-4" d="M831.56,668.36c4.78,31.01,4.04,65.78-.42,95.56,9.12-70.28-23.04-132.23-81.57-235.69-50.5-89.26-9.45-148.9,54.56-215.29.02-.02.04-.04.06-.06,5.42-5.36,10.85-10.88,16.28-16.59,15.2-15.29,31.27-31.06,47.43-47.77,83.68-86.43,98.19-160,73.47-202.57,0,0,0-.02,0-.03-1.21-3.03-2.77-5.85-4.71-8.43,88,90.38-63.72,282.59-124.64,354.16-53.55,62.93-50.16,108.93-30,142.02,20.17,33.08,38.25,61.44,49.54,134.7Z"/>
      <path class="cls-2" d="M1195.18,936.51c-58,60.91-143.92,107.09-262.05,115.79-23.44,1.73-45.59,2.06-66.48,1.16-258.11-11.1-327.99-209.55-332.24-277.79-2.56-41.01,6.28-75.12,29.06-92.24,0,0,0-.02.02-.02,3.22-2.12,6.55-4.11,10.01-5.98,0,0,0,0,.02,0,17.19-7.97,40.32-8.28,70.12,1.78.82.43,1.66.87,2.49,1.31,9.9,164.54,111.35,286.62,337.27,285.38,211.32-1.17,321.81-240.61,298.14-329.17,25.56,80.63,1.85,207.21-86.33,299.78Z"/>
      <path class="cls-1" d="M831.13,763.92s0,.07-.02.11c-1.45,9.69-3.31,18.85-5.49,27.18-.03.14-.07.28-.11.42-6.95,26.29-17.2,44.2-28.8,44.2-26.61,0-19.28-23.53-70.21-89.35-15.46-19.99-30.58-34.31-43.44-44.4,0,0-.02,0-.03-.02-21.65-16.98-36.95-22.01-36.95-22.01-.82-.3-1.65-.57-2.47-.85-142-74.2-204.39-13.59-219,33.57,22.14-77.97,68.71-143.03,122.27-188.64,115.51-98.4,187.11-141.9,257.24-211.18-64.01,66.39-105.06,126.03-54.56,215.29,58.53,103.47,90.69,165.41,81.57,235.69Z"/>
      <path class="cls-5" d="M179.52,765.81c-99.79,23.23-151.98,103.26-171.65,85.39-13.72-12.47-9.04-57.3,10.35-108.94-16.32,59.32,71.57,59.26,106.15-41.02,34.58-100.28,95.15-72.23,45.6-8.84-44.02,56.29-26.36,77.78,9.56,73.41Z"/>
      <path class="cls-10" d="M282.36,838.85c.2-2.04.42-4.12.66-6.22-.25,2.1-.48,4.17-.66,6.22ZM282.16,841c-2.54,28.7-.16,52.63,5.48,71.95-5.62-19.32-7.99-43.3-5.48-71.95ZM896.27,13.73c-.09-.04-.19-.07-.28-.11C753.93-34.14,336.14,29.85,212.56,430.04c29.58-87.58,99.06-59.76,76.45,20.25-12.67,44.83-39.39,82.1-103.54,105.4t-.02,0c-1.13.38-74.16,25.31-125.21,103.51-17.69,27.09-31.88,56-42.03,83.05-16.32,59.32,71.57,59.26,106.15-41.02,34.58-100.28,95.15-72.23,45.6-8.84-44.02,56.29-26.36,77.78,9.56,73.41,0,0,0,0,.02,0,4.67-1.08,9.46-2.05,14.34-2.87,1.69-.29,3.4-.56,5.12-.81h0c57.14-7.94,86.93,25.16,84.32,68.01l.03-.16c.09-.69.18-1.39.27-2.09.18-1.39.38-2.8.59-4.21.2-1.37.41-2.74.63-4.13.24-1.48.49-2.98.75-4.48.25-1.42.5-2.84.77-4.28.28-1.48.56-2.97.87-4.47.15-.75.3-1.51.46-2.26.48-2.3.98-4.62,1.51-6.96.7-3.06,1.43-6.15,2.22-9.29.21-.81.41-1.61.62-2.43.51-1.99,1.04-3.98,1.6-6,.55-2.02,1.12-4.04,1.71-6.09,1.66-5.75,3.48-11.62,5.46-17.6,27.6-83.32,78.03-151.44,137.13-208.72-24.56,22.31-63.71,10.97-57.99-22.58,8.77-51.45,121.41-76.85,178.28-103.03,56.87-26.18,9.23-51.43-20.75-24.54-29.97,26.9-74.92,34.19-89.14,14.98-13.29-17.95-.77-61.86,75.31-67.24,76.08-5.38,146.48,12.74,231.92-62.41,3.54-3.12,7.04-6.21,10.48-9.28-1.09.89-2.19,1.78-3.3,2.66-43.78,34.95-88.21,52.1-99.23,38.29-11.03-13.81,15.53-53.33,59.31-88.29,43.78-34.95,88.21-52.09,99.23-38.28,8.64,10.81-5.79,37.42-33.49,65.24,137.13-126.17,184.83-210.62,107.72-238.78ZM403,409.12c-9.76,0-17.68-7.91-17.68-17.67s7.92-17.67,17.68-17.67,17.67,7.91,17.67,17.67-7.91,17.67-17.67,17.67Z"/>
      <path class="cls-11" d="M1705.49,323.83c.97,40.61-45.53,103.85-163.87,122.3-112.91,17.6-204.45,53.8-193.42,166.18.91,5.37,1.69,10.95,2.3,16.74,0,0,0,.02,0,.03,1.16,10.76,1.8,22.25,1.91,34.52.93,109.19-36.94,218.12-113.17,303.99.25.12.49.25.74.4.03,0,.04.02.06.04.04,0,.06.03.08.05.15.07.29.16.42.27.16.11.32.22.48.34.16.12.31.23.47.37.15.12.3.24.44.39.11.08.2.17.29.27.13.11.24.22.35.35.2.2.39.4.56.62.18.21.35.44.51.66.17.22.32.46.47.69.08.12.15.23.21.36.07.12.13.24.21.37.06.11.12.22.17.33.06.12.12.23.16.34.09.2.18.39.25.59.08.19.15.38.21.56.08.22.14.44.21.66.05.17.1.34.13.51.12.53.21,1.07.26,1.62.02.17.03.34.04.51,0,.22.02.43.02.65,0,6.79-5.5,12.29-12.29,12.29s-12.3-5.5-12.3-12.29c0-.23,0-.47.03-.7,0-.13,0-.28.03-.41,0-.12.02-.22.04-.33.02-.23.05-.47.1-.69,0-.04,0-.06.02-.1.04-.22.09-.45.14-.67.03-.12.06-.23.09-.35.08-.3.18-.61.29-.91.03-.05.04-.12.06-.18.07-.21.16-.41.25-.61.05-.13.11-.26.18-.39.06-.15.14-.3.23-.45.1-.21.21-.4.33-.59.1-.17.21-.34.32-.5.11-.16.21-.32.34-.48.11-.16.23-.31.37-.47.13-.15.25-.3.39-.44.08-.1.17-.2.27-.29.09-.1.18-.19.28-.28l.03-.03-29.97-33.17c-58,60.91-143.92,107.09-262.05,115.79-23.44,1.73-45.59,2.06-66.48,1.16,79.49,10.48,36.6,106.42-80.96,81.83-117.58-24.58-181.61-123.46-205.69-178.78-24.08-55.33-64.55-42.52-37.91-8.2,26.64,34.33-2.3,78.26-35.73,10.25-32.24-65.6-31.52-216.8,57.11-275.13,0,0,0-.02.02-.02,3.08-2.31,6.41-4.31,10.01-5.98,0,0,0,0,.02,0,17.19-7.97,40.32-8.28,70.12,1.78-142-74.2-204.39-13.59-219,33.57-.02.05-.04.11-.04.16-.42,1.47-.83,2.93-1.23,4.41-.05.18-.09.35-.13.52-11.05,41.17-15.3,85.85-10.22,133.11,13.47,125.3-77.23,154.73-115.43,86.15-1.98-3.56-3.82-7.38-5.5-11.47-.22-.52-.42-1.04-.63-1.56-.41-1.05-.82-2.12-1.21-3.2-.25-.67-.48-1.36-.73-2.05-7.73-22.53-10.8-52-6.19-88.67v-.04c2.62-42.84-27.17-75.95-84.32-68,.25,1.87,30.9,225.25,275.42,379.92t0,0c7.02,4.44,14.21,8.82,21.59,13.15.04.03.1.04.14.07,8.33,4.88,16.88,9.67,25.68,14.37,83.09,44.44,171.21,63.95,257.49,65.01h.14c123.65-.04,223.62-52.54,257.3-75.44,68.94-46.87,105.47-86.17,123.91-114.22,18.44-28.05,51.48-5.77,26.52,20.74.86-.53,56.06-34.94,80.29-69.27,33.82-47.9,42.49-109.42,74.77-93.57,62.56-116.49,66.7-189.69,71.26-245.81,5.74-70.44,15.39-87.26,93.06-106.42,77.66-19.16,213.52-73.93,198.92-226.84ZM557.07,1067.29c-7.37,0-13.35-5.98-13.35-13.34s5.98-13.35,13.35-13.35,13.34,5.98,13.34,13.35-5.98,13.34-13.34,13.34Z"/>
      <path class="cls-12" d="M788.56,252.5l-.04.04c-7.25,6.66-14.75,13.44-22.48,20.34-1.09.89-2.19,1.78-3.3,2.66-43.78,34.95-88.21,52.1-99.23,38.29-11.03-13.81,15.53-53.33,59.31-88.29,43.78-34.95,88.21-52.09,99.23-38.28,8.64,10.81-5.79,37.42-33.49,65.24Z"/>
      <path class="cls-13" d="M289.02,450.29c-12.67,44.83-39.39,82.1-103.54,105.4,5.31-40.38,13.22-78.09,23.38-113.27.02-.06.04-.13.05-.2,1.17-4.03,2.36-8.04,3.59-12,.02-.06.04-.13.06-.18,29.58-87.58,99.06-59.76,76.45,20.25Z"/>
      <path class="cls-15" d="M1195.12,1213.45c-120.32,25.56-187.13-16.86-188.13-17.52,20.11-7.13,39.66-15.12,58.52-23.85.73-.33,1.44-.67,2.17-1,1.96-.91,3.92-1.84,5.86-2.77,1.37-.65,2.74-1.31,4.11-1.98,1.36-.65,2.73-1.32,4.08-2,20.2-9.98,39.63-20.84,58.15-32.28,10.64,30.18,36.55,48.79,58.09,59.51,9.9,4.92,7.96,19.6-2.85,21.89Z"/>
      <path class="cls-16" d="M420.67,391.45c0,9.76-7.91,17.67-17.67,17.67s-17.68-7.91-17.68-17.67,7.92-17.67,17.68-17.67,17.67,7.91,17.67,17.67Z"/>
      <circle class="cls-17" cx="223.99" cy="953.78" r="32.95"/>
      <path class="cls-18" d="M570.41,1053.95c0,7.36-5.98,13.34-13.34,13.34s-13.35-5.98-13.35-13.34,5.98-13.35,13.35-13.35,13.34,5.98,13.34,13.35Z"/>
      <path class="cls-19" d="M1245.97,978.54c0,6.79-5.5,12.29-12.29,12.29s-12.3-5.5-12.3-12.29c0-.23,0-.47.03-.7,0-.13,0-.28.03-.41,0-.12.02-.22.04-.33.03-.23.05-.47.1-.69,0-.04,0-.06.02-.1.04-.22.09-.45.14-.67.03-.12.06-.23.09-.35.08-.3.18-.61.29-.91.03-.05.04-.12.06-.18.07-.21.16-.41.25-.61.05-.13.12-.26.18-.39.06-.15.14-.3.23-.45.11-.2.21-.39.33-.59.1-.17.21-.34.32-.5.11-.16.22-.32.34-.48.12-.15.24-.31.37-.47.13-.15.25-.3.39-.44.08-.1.17-.2.27-.29.09-.1.18-.19.28-.28l.03-.03c.1-.11.21-.21.32-.3.12-.12.23-.22.36-.32.16-.13.32-.26.48-.38.16-.12.32-.23.48-.34.32-.22.66-.43,1.01-.62.17-.1.35-.19.53-.27.15-.08.31-.15.48-.22.19-.08.38-.16.57-.23l.28-.1c.27-.1.55-.18.82-.25.22-.06.44-.12.66-.16.82-.17,1.66-.26,2.52-.26.25,0,.5,0,.74.03.29,0,.57.04.85.08.16.02.31.04.47.07.08,0,.16.02.24.04.21.04.4.08.6.13.17.04.33.08.49.13.13.03.26.07.38.12.17.05.33.11.5.17.22.08.44.17.65.27.22.1.43.2.64.3.25.13.49.26.74.4.03,0,.04.02.06.04.04,0,.06.03.08.05.14.08.29.17.42.27.16.11.32.22.48.34.16.12.31.23.47.37.15.12.3.25.44.39.1.08.2.17.29.27.13.11.24.22.35.35.2.2.39.4.56.62.18.21.35.44.51.66.16.22.31.46.47.69.08.12.15.23.21.36.07.12.13.24.21.37.06.11.12.22.17.33.06.12.12.23.16.34.09.2.17.39.25.59.08.19.15.38.21.56.08.22.14.44.21.66.05.17.1.34.13.51.12.53.21,1.07.26,1.62.02.17.03.34.04.51,0,.22.02.43.02.65Z"/>
      <path class="cls-14" d="M941.37,45.95s0-.02,0-.03c-2.97-5.11-6.5-9.77-10.54-13.96-2.14-1.87-4.53-3.68-7.15-5.41-7.34-4.87-16.57-9.18-27.39-12.82,77.12,28.16,29.41,112.6-107.72,238.78l-.04.04c-6.75,6.78-14.3,13.63-22.48,20.34-3.44,3.07-6.94,6.16-10.48,9.28-85.44,75.15-155.84,57.04-231.92,62.41-76.08,5.38-88.59,49.29-75.31,67.24,14.22,19.21,59.17,11.91,89.14-14.98,29.97-26.9,77.61-1.64,20.75,24.54-56.87,26.18-169.51,51.58-178.28,103.03-5.72,33.56,33.42,44.9,57.99,22.58.71-.7,1.43-1.38,2.13-2.06-.7.72-1.41,1.41-2.13,2.06-59.1,57.28-109.53,125.39-137.13,208.72-1.98,5.98-3.8,11.85-5.46,17.6-.59,2.04-1.17,4.07-1.71,6.09-.55,2.02-1.08,4.01-1.6,6-.21.82-.41,1.62-.62,2.43-.79,3.14-1.52,6.23-2.22,9.29-.53,2.34-1.03,4.66-1.51,6.96-.15.75-.3,1.51-.46,2.26-.3,1.51-.59,2.99-.87,4.47-.27,1.43-.52,2.86-.77,4.28-.26,1.51-.51,3-.75,4.48-.21,1.39-.43,2.76-.63,4.13-.22,1.42-.41,2.82-.59,4.21-.11.75-.21,1.51-.3,2.25v.04c-.11.82-.21,1.64-.3,2.46-.25,2.1-.48,4.17-.66,6.22-.07.72-.13,1.43-.2,2.15-2.54,28.7-.16,52.63,5.48,71.95.58,2.01,1.21,3.97,1.86,5.89.24.69.48,1.38.73,2.05.39,1.08.8,2.15,1.21,3.2.21.52.41,1.04.63,1.56,1.7,3.77,3.54,7.59,5.5,11.47,38.19,68.57,128.9,39.14,115.43-86.15-5.08-47.26-.83-91.95,10.22-133.11.04-.17.08-.34.13-.52.36-1.45.76-2.92,1.23-4.41,0-.05.03-.11.04-.16,22.14-77.97,68.71-143.03,122.27-188.64,115.51-98.4,187.11-141.9,257.24-211.18.02-.02.04-.04.06-.06,5.28-5.48,10.71-11,16.28-16.59,15.2-15.29,31.27-31.06,47.43-47.77,83.68-86.43,98.19-160,73.47-202.57Z"/>
    </g>
  </g>
</svg>